<?xml version="1.0" encoding="UTF-8"?>
<svg id="logo" version="1.1" viewBox="0 0 286 60" xml:space="preserve" xmlns="http://www.w3.org/2000/svg" xmlns:xlink="http://www.w3.org/1999/xlink"><defs><path id="a" d="M-5-1h62v62H-5z"/><clipPath id="d-5"><use width="100%" height="100%" overflow="visible" xlink:href="#c"/></clipPath><path id="a-85" d="m-5-1h62v62h-62z"/><path id="c" d="m-5-1h62v62h-62z"/></defs><clipPath id="b"><use width="100%" height="100%" overflow="visible" xlink:href="#a"/></clipPath><g transform="translate(.10025)" fill="#15334a"><path style="fill:var(--ov_logo_text_color);" transform="matrix(.78095 0 0 .78095 84.238 8.152)" d="M33.6133 18.5L27.7803 35.97L21.9183 18.5H18.3313L25.5933 38.915H29.9093L37.2003 18.5H33.6133ZM43.0043 18.5V39.015H46.1543V18.5H43.0043ZM60.3643 21.241V18.5H46.1613V38.915H60.3643V36.173H49.2513V29.583H59.9843V26.928H49.2513V21.241H60.3643ZM69.6173 38.915H73.6413L67.3713 30.574C70.7243 30.049 72.9713 27.628 72.9713 24.537C72.9713 21.124 70.0833 18.5 65.9713 18.5H56.9593V38.915H60.1093V30.69H64.1043H69.6173ZM60.1093 21.212H65.8543C68.2453 21.212 69.8793 22.67 69.8793 24.566C69.8793 26.52 68.2453 28.066 65.8543 28.066H60.1093V21.212Z" fill="#15334a" stroke-width="2.2231" aria-label="AYRTON"/></g><g transform="translate(-.7 .077394)"><clipPath id="b-3"><use width="100%" height="100%" overflow="visible" xlink:href="#a-85"/></clipPath><g clip-path="url(#b-3)"><clipPath id="d"><use width="100%" height="100%" overflow="visible" xlink:href="#c"/></clipPath><g style="stroke:var(--ov_logo_border_color);" stroke-linecap="round" stroke-linejoin="round" stroke-miterlimit="10"><path transform="translate(.039092 .02257)" d="m38.361 22.877-12.4-7.3 9.2e-5 -14.177 24.8 14.2v28.8l-12.4-7.3226z" clip-path="url(#d)" fill="#4688b4"/><path transform="rotate(120,26,30.082)" d="m38.4 22.923-12.522-7.0887 0.14178-14.4 24.78 14.166v28.8l-12.522-7.0883z" clip-path="url(#d-5)" fill="#64c0ff"/><path d="m26 30v14.4l12.4-7.3v-14.2z" clip-path="url(#d)" fill="#294e67"/><path d="m13.6 37.1v-14.2l12.4-7.3v-14.177l-24.8 14.177v28.8z" clip-path="url(#d)" fill="#294e67"/><path d="m26 15.6-12.4 7.3 12.4 7.1 12.4-7.1z" clip-path="url(#d)" fill="#64c0ff"/><path d="m13.6 22.9 12.4 7.1v14.4l-12.4-7.3z" clip-path="url(#d)" fill="#4688b4"/></g></g></g></svg>
